# xmcd CD database file
#
# Track frame offsets:
#	183
#	21033
#	40560
#	49800
#	77348
#	90960
#	113768
#	128748
#	155380
#	176775
#
# Disc length: 2532 seconds
#
# Revision: 2
# Processed by: cddbd v1.4PL0 Copyright (c) Steve Scherf et al.
# Submitted via: CDex 1.50Beta7
#
DISCID=6709e20a
DTITLE=Snetberger Ferenc - bajotambo
DYEAR=1992
DGENRE=Jazz
TTITLE0=coffe
TTITLE1=just the another day
TTITLE2=ciempies
TTITLE3=bajotambo
TTITLE4=for my mother
TTITLE5=back home
TTITLE6=e bossa 
TTITLE7=monday's dance
TTITLE8=fleta
TTITLE9=marmelade
EXTD=YEAR: 1992
EXTT0=
EXTT1=
EXTT2=
EXTT3=
EXTT4=
EXTT5=
EXTT6=
EXTT7=
EXTT8=
EXTT9=
PLAYORDER=
